# File created by Blade
# Date/Time:  Wed Apr 08 17:35:20 2015
#---------------------------------------------------------
:version 1.10
:name HOM
:units
  mass 1.0
  length 1.000000
  angle deg
:documentation
     Acclaim Skeleton File
:root
   axis xyz
   order TX TY TZ RX RY RZ
   position 0.000000 0.000000 0.000000
   orientation 0 0 0
:bonedata
   begin
      id 1
      name Spine_dum
      direction 0.000000 1.000000 0.000000
      length 5.893853
      axis 0.0 0.0 0.0 xyz
   end
   begin
      id 2
      name LeftUpLeg_dum
      direction 1.000000 0.000000 0.000000
      length 3.697939
      axis 0.0 0.0 0.0 xyz
   end
   begin
      id 3
      name RightUpLeg_dum
      direction -1.000000 0.000000 0.000000
      length 3.697939
      axis 0.0 0.0 0.0 xyz
   end
   begin
      id 4
      name Spine
      direction 0.000000 1.000000 0.000000
      length 0.000000
      axis 0.0 0.0 0.0 xyz
      dof rx ry rz
   end
   begin
      id 5
      name Spine_dum1
      direction 0.000000 1.000000 0.000000
      length 16.447146
      axis 0.0 0.0 0.0 xyz
   end
   begin
      id 6
      name Spine_dum2
      direction 0.000000 1.000000 0.000000
      length 10.900383
      axis 0.0 0.0 0.0 xyz
   end
   begin
      id 7
      name Spine_dum3
      direction 0.000000 1.000000 0.000000
      length 10.900383
      axis 0.0 0.0 0.0 xyz
   end
   begin
      id 8
      name Head
      direction 0.000000 1.000000 0.000000
      length 4.527550
      axis 0.0 0.0 0.0 xyz
      dof rx ry rz
   end
   begin
      id 9
      name LeftShoulder
      direction 1.000000 0.000000 0.000000
      length 8.219464
      axis 0.0 0.0 -90.0 xyz
      dof rx ry rz
   end
   begin
      id 10
      name LeftArm
      direction 1.000000 0.000000 0.000000
      length 11.094937
      axis 0.0 0.0 -90.0 xyz
      dof rx ry rz
   end
   begin
      id 11
      name LeftForeArm
      direction 1.000000 0.000000 0.000000
      length 9.103875
      axis 0.0 0.0 -90.0 xyz
      dof ry rz rx
   end
   begin
      id 12
      name LeftHand
      direction 0.000000 0.000000 0.000000
      length 0.000000
      axis 0.0 0.0 -90.0 xyz
      dof rx ry rz
   end
   begin
      id 13
      name LeftHand_dum1
      direction 0.000000 0.000000 0.000000
      length 0.000000
      axis 0.0 0.0 -90.0 xyz
   end
   begin
      id 14
      name LeftHand_dum2
      direction 1.000000 0.000000 0.000000
      length 3.937000
      axis 0.0 0.0 -90.0 xyz
   end
   begin
      id 15
      name LeftHandThumb1
      direction 0.000000 0.000000 1.000000
      length 3.937000
      axis 0.0 0.0 -90.0 xyz
      dof rx rz ry
   end
   begin
      id 16
      name RightShoulder
      direction -1.000000 0.000000 0.000000
      length 8.219464
      axis 0.0 0.0 90.0 xyz
      dof rx ry rz
   end
   begin
      id 17
      name RightArm
      direction -1.000000 0.000000 0.000000
      length 11.094937
      axis 0.0 0.0 90.0 xyz
      dof rx ry rz
   end
   begin
      id 18
      name RightForeArm
      direction -1.000000 0.000000 0.000000
      length 9.103875
      axis 0.0 0.0 90.0 xyz
      dof ry rz rx
   end
   begin
      id 19
      name RightHand
      direction 0.000000 0.000000 0.000000
      length 0.000000
      axis 0.0 0.0 90.0 xyz
      dof rx ry rz
   end
   begin
      id 20
      name RightHand_dum1
      direction 0.000000 0.000000 0.000000
      length 0.000000
      axis 0.0 0.0 90.0 xyz
   end
   begin
      id 21
      name RightHand_dum2
      direction -1.000000 0.000000 0.000000
      length 3.937000
      axis 0.0 0.0 90.0 xyz
   end
   begin
      id 22
      name RightHandThumb1
      direction 0.000000 0.000000 1.000000
      length 3.937000
      axis 0.0 0.0 90.0 xyz
      dof rx rz ry
   end
   begin
      id 23
      name LeftUpLeg
      direction 0.000000 -1.000000 0.000000
      length 16.181467
      axis 0.0 0.0 0.0 xyz
      dof rx ry rz
   end
   begin
      id 24
      name LeftLeg
      direction 0.000000 -1.000000 0.000000
      length 16.501392
      axis 0.0 0.0 0.0 xyz
      dof rx ry rz
   end
   begin
      id 25
      name LeftFoot
      direction 0.000000 -0.258819 0.965926
      length 6.408245
      axis 15.0 0.0 0.0 xyz
      dof rx ry rz
   end
   begin
      id 26
      name LeftToeBase
      direction 0.000000 0.000000 1.000000
      length 2.952750
      axis 0.0 0.0 0.0 xyz
      dof rx ry rz
   end
   begin
      id 27
      name RightUpLeg
      direction 0.000000 -1.000000 0.000000
      length 16.181467
      axis 0.0 0.0 0.0 xyz
      dof rx ry rz
   end
   begin
      id 28
      name RightLeg
      direction 0.000000 -1.000000 0.000000
      length 16.501392
      axis 0.0 0.0 0.0 xyz
      dof rx ry rz
   end
   begin
      id 29
      name RightFoot
      direction 0.000000 -0.258819 0.965926
      length 6.408245
      axis 15.0 0.0 0.0 xyz
      dof rx ry rz
   end
   begin
      id 30
      name RightToeBase
      direction 0.000000 0.000000 1.000000
      length 2.952750
      axis 0.0 0.0 0.0 xyz
      dof rx ry rz
   end
:hierarchy
   begin
      root Spine_dum LeftUpLeg_dum RightUpLeg_dum
      Spine_dum Spine
      LeftUpLeg_dum LeftUpLeg
      RightUpLeg_dum RightUpLeg
      Spine Spine_dum1 Spine_dum2 Spine_dum3
      Spine_dum1 Head
      Spine_dum2 LeftShoulder
      Spine_dum3 RightShoulder
      LeftShoulder LeftArm
      LeftArm LeftForeArm
      LeftForeArm LeftHand
      LeftHand LeftHand_dum1 LeftHand_dum2
      LeftHand_dum1 LeftHandThumb1
      RightShoulder RightArm
      RightArm RightForeArm
      RightForeArm RightHand
      RightHand RightHand_dum1 RightHand_dum2
      RightHand_dum1 RightHandThumb1
      LeftUpLeg LeftLeg
      LeftLeg LeftFoot
      LeftFoot LeftToeBase
      RightUpLeg RightLeg
      RightLeg RightFoot
      RightFoot RightToeBase
   end

# File created by Blade
# Date/Time:  Wed Apr 08 17:35:25 2015
# Frame Rate: 120.000 fps
#------------------------------------------------------
:FULLY-SPECIFIED
:DEGREES
259
root 7.327017 36.704141 2.643235 36.697674 -50.244925 -14.673734
Spine -27.946985 -11.476248 16.642185
Head 16.291610 15.872746 3.630980
LeftShoulder -10.137474 24.017941 10.399495
LeftArm 22.291031 25.129658 -78.106128
LeftForeArm 19.784056 -0.000000 30.104602
LeftHand -11.372739 -0.000000 -12.165314
LeftHandThumb1 -26.253704 0.000000 33.147579
RightShoulder -42.751435 -54.397785 18.131466
RightArm 48.858566 -20.689104 53.417858
RightForeArm 5.243001 -0.000000 24.498301
RightHand -2.069648 -0.000000 16.235374
RightHandThumb1 -24.326973 -0.000000 -32.862282
LeftUpLeg -34.629296 -2.205945 6.452994
LeftLeg 22.864767 -0.000000 -0.000000
LeftFoot -11.475228 -3.604805 -2.360789
LeftToeBase 7.520016 -0.000000 -0.000000
RightUpLeg -116.848756 7.866804 18.542179
RightLeg 125.283834 -0.000000 -0.000000
RightFoot -11.733486 12.853897 20.789454
RightToeBase -11.108022 -0.000000 0.000000
260
root 7.319661 36.705136 2.651872 36.642127 -50.094891 -14.652058
Spine -27.987772 -11.434641 16.627845
Head 16.285351 15.841869 3.629805
LeftShoulder -10.176894 24.031888 10.380043
LeftArm 22.224398 25.218756 -78.031345
LeftForeArm 19.790357 -0.000000 29.974987
LeftHand -11.270208 -0.000000 -12.240999
LeftHandThumb1 -26.253704 0.000000 33.147579
RightShoulder -42.727897 -54.362427 18.127005
RightArm 48.895540 -20.755053 53.354366
RightForeArm 5.295208 0.000000 24.435554
RightHand -2.047062 0.000000 16.157300
RightHandThumb1 -24.326973 -0.000000 -32.862282
LeftUpLeg -34.626251 -2.144429 6.461721
LeftLeg 22.916578 -0.000000 -0.000000
LeftFoot -11.521589 -3.893231 -2.462322
LeftToeBase 7.794497 -0.000000 -0.000000
RightUpLeg -116.865810 7.835144 18.631942
RightLeg 125.251477 -0.000000 -0.000000
RightFoot -11.734812 13.074651 20.763976
RightToeBase -11.038759 -0.000000 0.000000
261
root 7.311698 36.706830 2.658869 36.615213 -49.954439 -14.651077
Spine -28.043506 -11.375370 16.627895
Head 16.283160 15.838251 3.612489
LeftShoulder -10.271474 24.119341 10.321763
LeftArm 22.202838 25.082152 -78.069588
LeftForeArm 20.024835 -0.000000 29.818497
LeftHand -11.293946 -0.000000 -12.322679
LeftHandThumb1 -26.253704 0.000000 33.147579
RightShoulder -42.677230 -54.335152 18.078263
RightArm 48.949522 -20.843079 53.284836
RightForeArm 5.427324 -0.000000 24.351814
RightHand -2.031048 -0.000000 16.148190
RightHandThumb1 -24.326973 -0.000000 -32.862282
LeftUpLeg -34.623805 -2.065571 6.492638
LeftLeg 22.953265 -0.000000 -0.000000
LeftFoot -11.580319 -4.259399 -2.653293
LeftToeBase 8.190481 -0.000000 -0.000000
RightUpLeg -116.880262 7.823223 18.724470
RightLeg 125.201720 -0.000000 -0.000000
RightFoot -11.777710 13.232894 20.754444
RightToeBase -10.870898 -0.000000 0.000000
262
root 7.303205 36.709911 2.666542 36.595273 -49.821892 -14.653516
Spine -28.108769 -11.313363 16.618165
Head 16.308742 15.807655 3.624830
LeftShoulder -10.314273 24.145599 10.291590
LeftArm 22.140836 25.111505 -78.015888
LeftForeArm 19.975306 -0.000000 29.643871
LeftHand -11.362585 -0.000000 -12.297042
LeftHandThumb1 -26.253704 0.000000 33.147579
RightShoulder -42.657092 -54.318117 18.080116
RightArm 49.000483 -20.857352 53.266976
RightForeArm 5.456173 -0.000000 24.274036
RightHand -2.050308 0.000000 16.042946
RightHandThumb1 -24.326973 -0.000000 -32.862282
LeftUpLeg -34.626233 -1.961209 6.506386
LeftLeg 22.997356 -0.000000 -0.000000
LeftFoot -11.621716 -4.610802 -2.820386
LeftToeBase 8.511350 -0.000000 -0.000000
RightUpLeg -116.901644 7.794907 18.800311
RightLeg 125.167474 -0.000000 -0.000000
RightFoot -11.760083 13.397691 20.754620
RightToeBase -10.941883 -0.000000 0.000000
